<svg xmlns="http://www.w3.org/2000/svg" viewBox="0 0.384 7.68 5.3759999999999994">
  <path fill="#7413DC" d="M 6.4512 2.7192 C 6.5004 2.5908 6.528 2.4504 6.528 2.304 C 6.528 1.668 6.012 1.152 5.376 1.152 C 5.1396 1.152 4.9188 1.224 4.7364 1.3464 C 4.404 0.7704 3.7836 0.384 3.072 0.384 C 2.0112 0.384 1.152 1.2432 1.152 2.304 C 1.152 2.3364 1.1532 2.3688 1.1544 2.4012 C 0.4824 2.6376 0 3.2784 0 4.032 C 0 4.986 0.774 5.76 1.728 5.76 H 6.144 C 6.9924 5.76 7.68 5.0724 7.68 4.224 C 7.68 3.4812 7.152 2.8608 6.4512 2.7192 Z M 4.8564 3.7836 L 3.5916 5.0484 C 3.5172 5.1228 3.3948 5.1228 3.3204 5.0484 L 2.0556 3.7836 C 1.9344 3.6624 2.0208 3.456 2.1912 3.456 H 2.976 V 2.112 C 2.976 2.0064 3.0624 1.92 3.168 1.92 H 3.744 C 3.8496 1.92 3.936 2.0064 3.936 2.112 V 3.456 H 4.7208 C 4.8912 3.456 4.9776 3.6624 4.8564 3.7836 Z" />
</svg>