<?xml version="1.0" encoding="UTF-8"?>
<svg width="40px" height="40px" viewBox="0 0 40 40" version="1.1" xmlns="http://www.w3.org/2000/svg" xmlns:xlink="http://www.w3.org/1999/xlink">
    <!-- Generator: sketchtool 49.1 (51147) - http://www.bohemiancoding.com/sketch -->
    <title>D575DCB4-3F19-4F99-BAED-C651D66631EC</title>
    <desc>Created with sketchtool.</desc>
    <defs></defs>
    <g id="symbols" stroke="none" stroke-width="1" fill="none" fill-rule="evenodd">
        <g id="Social" transform="translate(-267.000000, -55.000000)" fill="#FFFFFF" fill-rule="nonzero">
            <path d="M302.555556,55 L271.444444,55 C269,55 267,57 267,59.4444444 L267,90.5555556 C267,93.0022222 269,95 271.444444,95 L287,95 L287,79.4444444 L282.555556,79.4444444 L282.555556,73.9444444 L287,73.9444444 L287,69.3888889 C287,64.58 289.693333,61.2022222 295.368889,61.2022222 L299.375556,61.2066667 L299.375556,66.9955556 L296.715556,66.9955556 C294.506667,66.9955556 293.666667,68.6533333 293.666667,70.1911111 L293.666667,73.9466667 L299.373333,73.9466667 L298.111111,79.4444444 L293.666667,79.4444444 L293.666667,95 L302.555556,95 C305,95 307,93.0022222 307,90.5555556 L307,59.4444444 C307,57 305,55 302.555556,55 Z" id="Facebook"></path>
        </g>
    </g>
</svg>