<?xml version="1.0" encoding="UTF-8"?>
<svg width="41px" height="40px" viewBox="0 0 41 40" version="1.1" xmlns="http://www.w3.org/2000/svg" xmlns:xlink="http://www.w3.org/1999/xlink">
    <!-- Generator: sketchtool 49.1 (51147) - http://www.bohemiancoding.com/sketch -->
    <title>E1CBE33B-E8CB-4856-8395-42FA859DFE9A</title>
    <desc>Created with sketchtool.</desc>
    <defs></defs>
    <g id="symbols" stroke="none" stroke-width="1" fill="none" fill-rule="evenodd">
        <g id="Social" transform="translate(-380.000000, -55.000000)" fill="#FFFFFF">
            <path d="M384,55 L416.97561,55 C419.184749,55 420.97561,56.790861 420.97561,59 L420.97561,91 C420.97561,93.209139 419.184749,95 416.97561,95 L384,95 C381.790861,95 380,93.209139 380,91 L380,59 C380,56.790861 381.790861,55 384,55 Z M413.520595,69.1576547 C413.498663,68.0626103 413.291205,66.9792125 412.907044,65.9535307 C412.575591,65.0727393 412.056004,64.2748463 411.384512,63.615488 C410.725154,62.9439963 409.927261,62.4244089 409.046469,62.092956 C408.020787,61.7087947 406.93739,61.5013372 405.842345,61.4794053 C404.434404,61.415224 403.984929,61.4 400.4,61.4 C396.815071,61.4 396.365596,61.415224 394.957655,61.4794053 C393.86261,61.5013372 392.779213,61.7087947 391.753531,62.092956 C390.872739,62.4244089 390.074846,62.9439963 389.415488,63.615488 C388.743996,64.2748463 388.224409,65.0727393 387.892956,65.9535307 C387.508795,66.9792125 387.301337,68.0626103 387.279405,69.1576547 C387.215224,70.565596 387.2,71.0150707 387.2,74.6 C387.2,78.1849293 387.215224,78.634404 387.279405,80.0423453 C387.301337,81.1373897 387.508795,82.2207875 387.892956,83.2464693 C388.224409,84.1272607 388.743996,84.9251537 389.415488,85.584512 C390.074822,86.256033 390.872722,86.7756249 391.753531,87.107044 C392.779213,87.4912053 393.86261,87.6986628 394.957655,87.7205947 C396.365596,87.7848787 396.815071,87.8 400.4,87.8 C403.984929,87.8 404.434404,87.7848787 405.842345,87.7205947 C406.93739,87.6986628 408.020787,87.4912053 409.046469,87.107044 C410.819573,86.4212876 412.221273,85.0195878 412.907029,83.246484 C413.291191,82.2208021 413.498648,81.1374044 413.52058,80.04236 C413.584776,78.634404 413.6,78.1849293 413.6,74.6 C413.6,71.0150707 413.584776,70.565596 413.520595,69.1576547 Z M411.144697,79.933944 C411.13479,80.7709632 410.981023,81.6000457 410.690119,82.3849493 C410.246095,83.536177 409.336174,84.4461032 408.184949,84.8901333 C407.400043,85.181028 406.570962,85.3347945 405.733944,85.344712 C404.342209,85.40816 403.924781,85.4215947 400.4,85.4215947 C396.875219,85.4215947 396.457791,85.40816 395.066056,85.3446973 C394.229039,85.3347845 393.399958,85.181023 392.615051,84.8901333 C392.041687,84.6785757 391.523043,84.341173 391.097271,83.902744 C390.658835,83.4769684 390.321427,82.9583196 390.109867,82.3849493 C389.818962,81.6000457 389.665195,80.7709632 389.655288,79.933944 C389.59184,78.5420187 389.578405,78.1246053 389.578405,74.6 C389.578405,71.0753947 389.59184,70.6579813 389.655303,69.266056 C389.665216,68.4290387 389.818977,67.599958 390.109867,66.8150507 C390.321424,66.2416871 390.658827,65.7230435 391.097256,65.2972707 C391.523032,64.8588346 392.04168,64.5214266 392.615051,64.3098667 C393.399957,64.018972 394.229038,63.8652055 395.066056,63.855288 C396.457981,63.79184 396.875395,63.7784053 400.4,63.7784053 C403.924605,63.7784053 404.342019,63.79184 405.733944,63.8553027 C406.570962,63.8652202 407.400043,64.0189867 408.184949,64.3098813 C408.758313,64.521439 409.276957,64.8588417 409.702729,65.2972707 C410.141164,65.723042 410.478571,66.2416857 410.690133,66.8150507 C410.981028,67.5999571 411.134794,68.4290378 411.144712,69.266056 C411.208175,70.6579227 411.221609,71.0754827 411.221609,74.6 C411.221609,78.1245173 411.20816,78.5420187 411.144697,79.933944 Z M400.4,67.8215947 C396.65639,67.8215947 393.621595,70.8563901 393.621595,74.6 C393.621595,78.3436099 396.65639,81.3784053 400.4,81.3784053 C404.14361,81.3784053 407.178405,78.3436099 407.178405,74.6 C407.178365,70.8564069 404.143593,67.8216352 400.4,67.8215947 Z M400.4,79 C397.969947,79 396,77.0300529 396,74.6 C396,72.1699471 397.969947,70.2 400.4,70.2 C402.830053,70.2 404.8,72.1699471 404.8,74.6 C404.8,75.7669526 404.33643,76.8861098 403.51127,77.7112698 C402.68611,78.5364299 401.566953,79 400.4,79 Z M409.030189,67.55384 C409.030189,66.679021 408.321008,65.96984 407.446189,65.96984 C406.57137,65.96984 405.862189,66.679021 405.862189,67.55384 C405.862189,68.428659 406.57137,69.13784 407.446189,69.13784 C408.321008,69.13784 409.030189,68.428659 409.030189,67.55384 Z" id="Instagram"></path>
        </g>
    </g>
</svg>