<?xml version="1.0" encoding="UTF-8"?>
<svg width="41px" height="40px" viewBox="0 0 41 40" version="1.1" xmlns="http://www.w3.org/2000/svg" xmlns:xlink="http://www.w3.org/1999/xlink">
    <!-- Generator: sketchtool 49.1 (51147) - http://www.bohemiancoding.com/sketch -->
    <title>A7B0C8D8-9B55-4A29-A044-C84937E4B1BF</title>
    <desc>Created with sketchtool.</desc>
    <defs></defs>
    <g id="symbols" stroke="none" stroke-width="1" fill="none" fill-rule="evenodd">
        <g id="Social" transform="translate(-493.000000, -55.000000)" fill="#FFFFFF">
            <path d="M497,55 L529.97561,55 C532.184749,55 533.97561,56.790861 533.97561,59 L533.97561,91 C533.97561,93.209139 532.184749,95 529.97561,95 L497,95 C494.790861,95 493,93.209139 493,91 L493,59 C493,56.790861 494.790861,55 497,55 Z M513.8,66.2 C502.79264,66.2 502.6,67.17888 502.6,74.824 C502.6,82.46912 502.79264,83.448 513.8,83.448 C524.80736,83.448 525,82.46912 525,74.824 C525,67.17888 524.80736,66.2 513.8,66.2 Z M517.3896,75.19808 L512.3608,77.5456 C511.92064,77.74944 511.56,77.52096 511.56,77.03488 L511.56,72.61312 C511.56,72.12816 511.92064,71.89856 512.3608,72.1024 L517.3896,74.44992 C517.82976,74.656 517.82976,74.992 517.3896,75.19808 Z" id="Combined-Shape"></path>
        </g>
    </g>
</svg>